<svg xmlns="http://www.w3.org/2000/svg" viewBox="0 0 256.83 29.1"><title>Raindrop Studio</title><path d="M113.57,128.31l-.4,0h-5.81v9.33h-2.1V116h7.47a8.82,8.82,0,0,1,2.88.44,6.18,6.18,0,0,1,2.15,1.23,5.17,5.17,0,0,1,1.33,1.88,6,6,0,0,1,.45,2.34v.45a5.58,5.58,0,0,1-1,3.4,6,6,0,0,1-2.85,2.09l4.35,9.81h-2.25Zm-6.21-10.38v8.52h4.74a6.1,6.1,0,0,0,4.06-1.1,3.88,3.88,0,0,0,1.25-3.07V122a3.77,3.77,0,0,0-1.22-3,5.55,5.55,0,0,0-3.76-1.08Z" transform="translate(-105.26 -114.99)" style="fill:#4d79cb"/><path d="M131.45,137.91a5.58,5.58,0,0,1-3.75-1.23,4.22,4.22,0,0,1-1.44-3.39v-.66a4,4,0,0,1,1.44-3.21,6.41,6.41,0,0,1,4.26-1.23h4.56v-1.5a3.61,3.61,0,0,0-1-2.71,4,4,0,0,0-2.87-.94,6.91,6.91,0,0,0-2.52.46,11,11,0,0,0-2.25,1.19l-1-1.56a13.55,13.55,0,0,1,2.54-1.35,8.57,8.57,0,0,1,3.25-.57,6.28,6.28,0,0,1,4.27,1.35,4.79,4.79,0,0,1,1.54,3.81v11.31h-2v-2h0a3.55,3.55,0,0,1-.71.79,5.67,5.67,0,0,1-1.1.74A7.23,7.23,0,0,1,131.45,137.91Zm5.07-8H132a4.17,4.17,0,0,0-2.82.78,2.61,2.61,0,0,0-.87,2v.48a2.77,2.77,0,0,0,.3,1.33,2.68,2.68,0,0,0,.79.92,3.32,3.32,0,0,0,1.11.53,4.77,4.77,0,0,0,1.25.17,5.9,5.9,0,0,0,1.74-.24,6.31,6.31,0,0,0,1.5-.69,3.87,3.87,0,0,0,1.1-1,2.61,2.61,0,0,0,.44-1.54Z" transform="translate(-105.26 -114.99)" style="fill:#4d79cb"/><path d="M146.06,116.13h2.22v2.28h-2.22Zm.09,5.37h2v16.17h-2Z" transform="translate(-105.26 -114.99)" style="fill:#4d79cb"/><path d="M163,121.2a5.82,5.82,0,0,1,4.31,1.52,5.49,5.49,0,0,1,1.52,4.06v10.89h-2V127.29a7.12,7.12,0,0,0-.18-1.63,3.39,3.39,0,0,0-.65-1.35,3.08,3.08,0,0,0-1.26-.92,5.24,5.24,0,0,0-2-.33,4.62,4.62,0,0,0-1.87.38,4.71,4.71,0,0,0-1.46,1,4.77,4.77,0,0,0-.94,1.32,3.3,3.3,0,0,0-.35,1.44v10.5h-2V121.5h2v2.25a5.15,5.15,0,0,1,.72-.92,4.83,4.83,0,0,1,1.08-.82,6.39,6.39,0,0,1,1.41-.58A6.25,6.25,0,0,1,163,121.2Z" transform="translate(-105.26 -114.99)" style="fill:#4d79cb"/><path d="M187.1,135.54h0a4.09,4.09,0,0,1-2,1.8,7,7,0,0,1-2.76.57,6.92,6.92,0,0,1-2.58-.46,5.86,5.86,0,0,1-2-1.35,6.06,6.06,0,0,1-1.35-2.17,8.39,8.39,0,0,1-.48-2.94v-2.85a8.39,8.39,0,0,1,.48-2.94,6.18,6.18,0,0,1,1.33-2.17,5.69,5.69,0,0,1,2-1.35,7,7,0,0,1,2.56-.46,6,6,0,0,1,3,.69,5.58,5.58,0,0,1,1.83,1.59V115h2v22.68h-2Zm-9.24-4.86a5.92,5.92,0,0,0,1.23,4,4.12,4.12,0,0,0,3.27,1.41,6.43,6.43,0,0,0,1.84-.25,4.12,4.12,0,0,0,1.48-.78,3.79,3.79,0,0,0,1-1.32,4.37,4.37,0,0,0,.38-1.87V127a3.22,3.22,0,0,0-.35-1.42,4.4,4.4,0,0,0-1-1.29,5,5,0,0,0-1.5-.94,4.89,4.89,0,0,0-1.89-.36,4.09,4.09,0,0,0-3.29,1.43,6,6,0,0,0-1.21,4Z" transform="translate(-105.26 -114.99)" style="fill:#4d79cb"/><path d="M205.25,123.6a5.32,5.32,0,0,0-2-.33,4.1,4.1,0,0,0-1.8.39,4,4,0,0,0-1.38,1.08,4.81,4.81,0,0,0-.87,1.65,7,7,0,0,0-.3,2.1v9.18h-2V121.5h2v2.85a7.56,7.56,0,0,1,.67-1.14,4.79,4.79,0,0,1,1-1,4.93,4.93,0,0,1,1.32-.72,4.8,4.8,0,0,1,1.67-.27,9.49,9.49,0,0,1,1.25.07,5.36,5.36,0,0,1,1.06.26Z" transform="translate(-105.26 -114.99)" style="fill:#4d79cb"/><path d="M233.72,135.75v8.34h-2V121.5h2v2.28a4.9,4.9,0,0,1,2-1.91,6.08,6.08,0,0,1,2.83-.67,7.13,7.13,0,0,1,2.63.46,5.56,5.56,0,0,1,2,1.35,6.14,6.14,0,0,1,1.3,2.17,8.63,8.63,0,0,1,.47,2.94V131a8.41,8.41,0,0,1-.48,2.94,6.18,6.18,0,0,1-1.33,2.17,5.68,5.68,0,0,1-2,1.35,7,7,0,0,1-2.57.46,6.17,6.17,0,0,1-2.92-.64,5.6,5.6,0,0,1-1.87-1.51Zm9.21-7.32a5.86,5.86,0,0,0-1.22-4,4.15,4.15,0,0,0-3.28-1.38,5,5,0,0,0-1.68.3,4.71,4.71,0,0,0-1.51.88,4.6,4.6,0,0,0-1.09,1.41,4.14,4.14,0,0,0-.42,1.9v4.74a3,3,0,0,0,.34,1.39,4,4,0,0,0,1,1.21,5,5,0,0,0,1.49.87,5.24,5.24,0,0,0,1.91.33,4.09,4.09,0,0,0,3.28-1.42,6,6,0,0,0,1.22-4Z" transform="translate(-105.26 -114.99)" style="fill:#4d79cb"/><path d="M269.21,136.05a7.91,7.91,0,0,0,2.27-.3,5.46,5.46,0,0,0,1.71-.83,3.63,3.63,0,0,0,1.06-1.2,2.93,2.93,0,0,0,.36-1.39v-.63a3.61,3.61,0,0,0-.24-1.35,2.68,2.68,0,0,0-.87-1.09,6.4,6.4,0,0,0-1.72-.9,22.86,22.86,0,0,0-2.83-.79,17.53,17.53,0,0,1-3.17-1,7.25,7.25,0,0,1-2-1.26,4,4,0,0,1-1.08-1.56,5.38,5.38,0,0,1-.31-1.87v-.69a4.76,4.76,0,0,1,.52-2.23,5.15,5.15,0,0,1,1.47-1.73,7.21,7.21,0,0,1,2.25-1.12,9.52,9.52,0,0,1,2.83-.41,11.82,11.82,0,0,1,3.75.53,10.41,10.41,0,0,1,2.67,1.3l-1,1.71a8.7,8.7,0,0,0-2.4-1.19,9.87,9.87,0,0,0-3-.43,7.33,7.33,0,0,0-1.89.24,5,5,0,0,0-1.58.71,3.74,3.74,0,0,0-1.08,1.13,2.81,2.81,0,0,0-.4,1.5v.6a3,3,0,0,0,.25,1.26,2.67,2.67,0,0,0,.84,1,6.47,6.47,0,0,0,1.58.84,16.89,16.89,0,0,0,2.46.72,23.65,23.65,0,0,1,3.48,1,7.49,7.49,0,0,1,2.19,1.27,4,4,0,0,1,1.14,1.62,6,6,0,0,1,.33,2.07v.69a4.83,4.83,0,0,1-.51,2.19,5.53,5.53,0,0,1-1.46,1.8,7,7,0,0,1-2.34,1.23,10.19,10.19,0,0,1-3.13.45,12.33,12.33,0,0,1-4-.65A11.51,11.51,0,0,1,262,135.6l1.08-1.77a12.13,12.13,0,0,0,3.17,1.69A9.33,9.33,0,0,0,269.21,136.05Z" transform="translate(-105.26 -114.99)" style="fill:#4d79cb"/><path d="M285,123.24h-2.76V121.5H285v-4.17h2v4.17h4.47v1.74H287v9.84a3.81,3.81,0,0,0,.52,2.31,2.11,2.11,0,0,0,1.76.66,8.47,8.47,0,0,0,2.28-.3l.3,1.68a6,6,0,0,1-1.27.29,11.31,11.31,0,0,1-1.46.1,6.42,6.42,0,0,1-1.84-.24,2.93,2.93,0,0,1-1.31-.78,3.41,3.41,0,0,1-.76-1.42,8.1,8.1,0,0,1-.25-2.21Z" transform="translate(-105.26 -114.99)" style="fill:#4d79cb"/><path d="M303.89,137.91a5.49,5.49,0,0,1-4.2-1.53,5.67,5.67,0,0,1-1.44-4V121.5h2v10.32a7.73,7.73,0,0,0,.17,1.64,3.56,3.56,0,0,0,.58,1.35,2.76,2.76,0,0,0,1.18.92,5,5,0,0,0,2,.33,4.78,4.78,0,0,0,1.88-.36,4.83,4.83,0,0,0,1.47-.94,4.48,4.48,0,0,0,1-1.31,3.31,3.31,0,0,0,.34-1.44V121.5h2v16.17h-2v-2.25a5.49,5.49,0,0,1-1.82,1.71A5.87,5.87,0,0,1,303.89,137.91Z" transform="translate(-105.26 -114.99)" style="fill:#4d79cb"/><path d="M329.27,135.54h0a4.08,4.08,0,0,1-2,1.8,7,7,0,0,1-2.76.57,6.92,6.92,0,0,1-2.58-.46,5.86,5.86,0,0,1-2-1.35,6.06,6.06,0,0,1-1.35-2.17A8.39,8.39,0,0,1,318,131v-2.85a8.39,8.39,0,0,1,.48-2.94A6.18,6.18,0,0,1,319.8,123a5.7,5.7,0,0,1,2-1.35,7,7,0,0,1,2.56-.46,5.94,5.94,0,0,1,3,.69,5.58,5.58,0,0,1,1.83,1.59V115h2v22.68h-2ZM320,130.68a5.93,5.93,0,0,0,1.23,4,4.12,4.12,0,0,0,3.27,1.41,6.44,6.44,0,0,0,1.85-.25,4.13,4.13,0,0,0,1.48-.78,3.79,3.79,0,0,0,1-1.32,4.36,4.36,0,0,0,.38-1.87V127a3.22,3.22,0,0,0-.34-1.42,4.41,4.41,0,0,0-1-1.29,5,5,0,0,0-1.5-.94,4.9,4.9,0,0,0-1.89-.36,4.1,4.1,0,0,0-3.29,1.43,6,6,0,0,0-1.21,4Z" transform="translate(-105.26 -114.99)" style="fill:#4d79cb"/><path d="M339.08,116.13h2.22v2.28h-2.22Zm.09,5.37h2v16.17h-2Z" transform="translate(-105.26 -114.99)" style="fill:#4d79cb"/><path d="M355.22,121.2a6.61,6.61,0,0,1,5.07,1.92,7.64,7.64,0,0,1,1.8,5.43v2a7.63,7.63,0,0,1-1.8,5.43,7.65,7.65,0,0,1-10.14,0,7.63,7.63,0,0,1-1.8-5.43v-2a7.63,7.63,0,0,1,1.8-5.45A6.64,6.64,0,0,1,355.22,121.2Zm0,14.91a4.54,4.54,0,0,0,3.53-1.39,6.18,6.18,0,0,0,1.28-4.28v-1.77a6.17,6.17,0,0,0-1.28-4.27,5.15,5.15,0,0,0-7,0,6.17,6.17,0,0,0-1.28,4.27v1.77a6.17,6.17,0,0,0,1.28,4.28A4.53,4.53,0,0,0,355.22,136.11Z" transform="translate(-105.26 -114.99)" style="fill:#4d79cb"/><g style="isolation:isolate"><path d="M223.84,119.37s-11.91,3.35-14.26,7.42a8.52,8.52,0,0,0,14.76,8.52C226.69,131.24,223.84,119.37,223.84,119.37Z" transform="translate(-105.26 -114.99)" style="fill:#4d79cb;fill-rule:evenodd"/></g><path d="M213.5,132.4l-3.39-1.78v-.38l3.74,2v.31l-3.74,2v-.38l3.39-1.79Z" transform="translate(-105.26 -114.99)" style="fill:#fff"/><path d="M217.65,135.93H214v-.34h3.68Z" transform="translate(-105.26 -114.99)" style="fill:#fff"/></svg>